<?xml version="1.0" standalone="no"?><!DOCTYPE svg PUBLIC "-//W3C//DTD SVG 1.1//EN" "http://www.w3.org/Graphics/SVG/1.1/DTD/svg11.dtd"><svg t="1692383209249" class="icon" viewBox="0 0 1024 1024" version="1.1" xmlns="http://www.w3.org/2000/svg" p-id="1509" xmlns:xlink="http://www.w3.org/1999/xlink" width="128" height="128"><path d="M494.4 171.2l-155.2 97.6c-20.8 12.8-43.2 19.2-67.2 19.2h-76.8c-64 0-115.2 51.2-115.2 113.6v225.6c0 68.8 56 124.8 124.8 124.8h89.6c24 0 46.4 6.4 67.2 19.2l134.4 81.6c9.6 6.4 20.8 9.6 33.6 9.6 35.2 0 64-28.8 64-64V225.6c0-11.2-3.2-24-9.6-33.6-20.8-30.4-59.2-40-89.6-20.8zM528 798.4l-134.4-81.6c-30.4-17.6-64-28.8-99.2-28.8h-89.6C171.2 688 144 660.8 144 627.2V401.6c0-27.2 22.4-49.6 49.6-49.6H272c36.8 0 70.4-9.6 102.4-28.8l155.2-97.6v572.8zM912 480H720c-17.6 0-32 14.4-32 32s14.4 32 32 32h192c17.6 0 32-14.4 32-32s-14.4-32-32-32zM899.2 752l-166.4-96c-16-9.6-35.2-3.2-43.2 11.2-9.6 16-3.2 35.2 11.2 43.2l166.4 96c16 9.6 35.2 3.2 43.2-11.2 9.6-14.4 4.8-33.6-11.2-43.2zM731.2 368l166.4-96c16-9.6 20.8-28.8 11.2-43.2-9.6-16-28.8-20.8-43.2-11.2l-166.4 96c-16 9.6-20.8 28.8-11.2 43.2s28.8 20.8 43.2 11.2z" fill="#4A576A" p-id="1510"></path></svg>